<?xml version="1.0" standalone="no"?>
<!DOCTYPE svg PUBLIC "-//W3C//DTD SVG 20010904//EN"
 "http://www.w3.org/TR/2001/REC-SVG-20010904/DTD/svg10.dtd">
<svg version="1.0" xmlns="http://www.w3.org/2000/svg"
 width="1080.000000pt" height="1080.000000pt" viewBox="0 0 1080.000000 1080.000000"
 preserveAspectRatio="xMidYMid meet">

<g transform="translate(0.000000,1080.000000) scale(0.100000,-0.100000)"
fill="#000000" stroke="none">
<path d="M3380 8053 c-16 -3 -136 -115 -348 -326 -252 -251 -327 -321 -345
-319 -14 1 -9 -4 14 -13 35 -15 59 -49 59 -82 0 -8 -36 -52 -80 -97 l-80 -82
75 -74 c40 -40 76 -84 80 -98 7 -29 -16 -68 -50 -84 -39 -18 -74 5 -188 121
l-106 107 -186 -186 -187 -187 4 -92 c1 -51 6 -95 11 -98 4 -2 7 -12 7 -22 0
-38 65 -144 121 -195 62 -58 119 -89 206 -111 85 -22 1072 -22 1156 0 184 48
320 197 347 381 5 38 10 155 10 259 l0 191 -32 12 c-27 10 -33 9 -44 -6 -7 -9
-14 -20 -14 -24 0 -10 -61 -41 -67 -34 -6 6 84 254 100 274 5 6 18 12 28 12
18 0 19 11 19 199 0 167 -3 209 -19 260 -66 212 -282 350 -491 314z m-275
-538 c14 -13 25 -34 25 -47 0 -40 -192 -692 -209 -710 -9 -9 -28 -20 -42 -23
-34 -8 -82 30 -81 66 0 27 166 635 188 687 22 54 80 67 119 27z m173 -129 c38
-20 209 -196 220 -226 6 -15 6 -35 0 -50 -11 -30 -182 -206 -220 -226 -34 -18
-73 -9 -93 19 -30 42 -19 67 62 149 l77 77 -77 80 c-66 67 -77 84 -77 113 0
34 18 59 50 71 24 9 29 8 58 -7z m442 -120 c0 -7 -22 -54 -50 -104 -27 -50
-50 -93 -50 -96 0 -3 27 -6 60 -6 66 0 79 -15 38 -44 -26 -18 -198 -23 -198
-6 0 5 23 50 50 100 28 50 50 92 50 94 0 3 -21 6 -47 8 -49 3 -63 18 -49 54 8
20 196 21 196 0z"/>
<path d="M2635 7390 c-3 -6 1 -7 9 -4 18 7 21 14 7 14 -6 0 -13 -4 -16 -10z"/>
<path d="M2520 7283 l-95 -98 98 95 c90 88 102 100 94 100 -1 0 -45 -44 -97
-97z"/>
<path d="M3856 7148 c-9 -35 -8 -38 15 -38 16 0 19 4 14 23 -11 35 -22 41 -29
15z"/>
<path d="M2401 7134 c0 -11 3 -14 6 -6 3 7 2 16 -1 19 -3 4 -6 -2 -5 -13z"/>
</g>
</svg>
