<?xml version="1.0" encoding="UTF-8" standalone="no" ?>
<!DOCTYPE svg PUBLIC "-//W3C//DTD SVG 1.1//EN" "http://www.w3.org/Graphics/SVG/1.1/DTD/svg11.dtd">
<svg xmlns="http://www.w3.org/2000/svg" xmlns:xlink="http://www.w3.org/1999/xlink" version="1.1" width="1080" height="1080" viewBox="0 0 1080 1080" xml:space="preserve">
<desc>Created with Fabric.js 5.2.4</desc>
<defs>
</defs>
<g transform="matrix(1 0 0 1 540 540)" id="bc962bbf-2a04-41b1-91cf-9025d719f74e"  >
<rect style="stroke: none; stroke-width: 1; stroke-dasharray: none; stroke-linecap: butt; stroke-dashoffset: 0; stroke-linejoin: miter; stroke-miterlimit: 4; fill: rgb(255,255,255); fill-rule: nonzero; opacity: 1; visibility: hidden;" vector-effect="non-scaling-stroke"  x="-540" y="-540" rx="0" ry="0" width="1080" height="1080" />
</g>
<g transform="matrix(1 0 0 1 540 540)" id="2aad5d0b-9812-4617-9892-8c7a2b3b6842"  >
</g>
<g transform="matrix(1 0 0 1 672.15 553.46)"  >
<path style="stroke: none; stroke-width: 1; stroke-dasharray: none; stroke-linecap: butt; stroke-dashoffset: 0; stroke-linejoin: miter; stroke-miterlimit: 4; fill: rgb(241,48,36); fill-rule: nonzero; opacity: 1;" vector-effect="non-scaling-stroke"  transform=" translate(-267.26, -30.82)" d="M 265.19 33 L 265.19 28.644 L 269.326 28.644 L 269.326 33 L 265.19 33 Z" stroke-linecap="round" />
</g>
<g transform="matrix(1 0 0 1 540 540)" style="" id="70d3d2dd-5afd-4253-811a-04a7036261ef"  >
		<text xml:space="preserve" font-family="Lato" font-size="32" font-style="normal" font-weight="400" style="stroke: none; stroke-width: 1; stroke-dasharray: none; stroke-linecap: butt; stroke-dashoffset: 0; stroke-linejoin: miter; stroke-miterlimit: 4; fill: rgb(255,255,255); fill-rule: nonzero; opacity: 1; white-space: pre;" ><tspan x="-148.27" y="10.05" >Z</tspan><tspan x="-124.84" y="10.05" >A</tspan><tspan x="-99.61" y="10.05" >R</tspan><tspan x="-76.28" y="10.05" >O</tspan><tspan x="-47.25" y="10.05" >U</tspan><tspan x="-20.42" y="10.05" >K</tspan><tspan x="4.84" y="10.05" >I</tspan><tspan x="18.08" y="10.05" style="white-space: pre; "> </tspan><tspan x="27.64" y="10.05" style="white-space: pre; "> </tspan><tspan x="37.21" y="10.05" >A</tspan><tspan x="62.43" y="10.05" >c</tspan><tspan x="80.81" y="10.05" >h</tspan><tspan x="102.05" y="10.05" >r</tspan><tspan x="117.76" y="10.05" >a</tspan><tspan x="137.43" y="10.05" >f</tspan></text>
</g>
</svg>