<?xml version="1.0" encoding="UTF-8"?>
<!DOCTYPE svg PUBLIC "-//W3C//DTD SVG 1.1//EN" "http://www.w3.org/Graphics/SVG/1.1/DTD/svg11.dtd">
<svg xmlns="http://www.w3.org/2000/svg" version="1.1" width="518px" height="481px" style="shape-rendering:geometricPrecision; text-rendering:geometricPrecision; image-rendering:optimizeQuality; fill-rule:evenodd; clip-rule:evenodd" xmlns:xlink="http://www.w3.org/1999/xlink">
<g><path style="opacity:0.999" fill="#fff9f5" d="M 375.5,280.5 C 375.335,284.182 375.501,287.848 376,291.5C 376.717,290.956 377.217,290.289 377.5,289.5C 383.072,287.399 387.906,288.399 392,292.5C 392.483,293.448 392.649,294.448 392.5,295.5C 392.5,301.833 392.5,308.167 392.5,314.5C 389.833,314.5 387.167,314.5 384.5,314.5C 384.666,308.824 384.499,303.157 384,297.5C 383.617,296.944 383.117,296.611 382.5,296.5C 379.347,295.598 377.347,296.931 376.5,300.5C 375.514,304.97 375.181,309.637 375.5,314.5C 372.833,314.5 370.167,314.5 367.5,314.5C 366.851,300.127 367.518,286.127 369.5,272.5C 370.117,272.389 370.617,272.056 371,271.5C 371.953,273.455 373.287,275.122 375,276.5C 375.49,277.793 375.657,279.127 375.5,280.5 Z"/></g>
<g><path style="opacity:0.999" fill="#fffaf9" d="M 464.5,288.5 C 465.833,288.5 467.167,288.5 468.5,288.5C 468.5,290.833 468.5,293.167 468.5,295.5C 467.167,295.5 465.833,295.5 464.5,295.5C 463.51,301.645 463.177,307.978 463.5,314.5C 460.833,314.5 458.167,314.5 455.5,314.5C 456.123,307.745 455.456,301.412 453.5,295.5C 452.167,295.5 450.833,295.5 449.5,295.5C 449.986,293.193 449.986,291.027 449.5,289C 450.793,288.51 452.127,288.343 453.5,288.5C 455.388,286.012 456.055,283.012 455.5,279.5C 456.906,279.027 457.573,278.027 457.5,276.5C 458.833,275.833 459.833,274.833 460.5,273.5C 463.43,272.701 466.43,272.368 469.5,272.5C 469.5,274.833 469.5,277.167 469.5,279.5C 467.278,279.178 465.444,279.845 464,281.5C 463.204,284.039 463.371,286.372 464.5,288.5 Z"/></g>
<g><path style="opacity:0.637" fill="#ff8cae" d="M 369.5,272.5 C 367.518,286.127 366.851,300.127 367.5,314.5C 370.167,314.5 372.833,314.5 375.5,314.5C 370.982,317.55 367.649,316.55 365.5,311.5C 366.464,298.197 366.797,284.864 366.5,271.5C 367.791,271.263 368.791,271.596 369.5,272.5 Z"/></g>
<g><path style="opacity:0.235" fill="#ff6153" d="M 464.5,288.5 C 463.371,286.372 463.204,284.039 464,281.5C 465.444,279.845 467.278,279.178 469.5,279.5C 469.5,277.167 469.5,274.833 469.5,272.5C 466.43,272.368 463.43,272.701 460.5,273.5C 461.736,271.957 463.402,270.957 465.5,270.5C 466.72,271.711 467.887,271.711 469,270.5C 471.19,272.783 471.857,275.449 471,278.5C 469.116,279.977 467.116,281.31 465,282.5C 464.505,284.473 464.338,286.473 464.5,288.5 Z"/></g>
<g><path style="opacity:0.392" fill="#ff5c72" d="M 460.5,273.5 C 459.833,274.833 458.833,275.833 457.5,276.5C 457.5,274.5 458.5,273.5 460.5,273.5 Z"/></g>
<g><path style="opacity:0.437" fill="#ff8c89" d="M 48.5,276.5 C 58.008,275.177 67.6746,275.177 77.5,276.5C 77.3764,277.107 77.0431,277.44 76.5,277.5C 67.3483,276.506 58.015,276.173 48.5,276.5 Z"/></g>
<g><path style="opacity:0.45" fill="#ff867f" d="M 93.5,276.5 C 94.7933,275.842 96.2933,275.508 98,275.5C 99.9855,275.569 101.486,276.235 102.5,277.5C 99.6085,276.597 96.6085,276.264 93.5,276.5 Z"/></g>
<g><path style="opacity:0.447" fill="#ff8886" d="M 178.5,277.5 C 172.167,276.167 165.833,276.167 159.5,277.5C 162.356,275.994 165.523,275.328 169,275.5C 172.477,275.328 175.644,275.994 178.5,277.5 Z"/></g>
<g><path style="opacity:0.452" fill="#ff8683" d="M 282.5,276.5 C 275.833,276.5 269.167,276.5 262.5,276.5C 261.391,276.557 260.391,276.89 259.5,277.5C 255.388,275.977 251.388,276.311 247.5,278.5C 247.414,277.504 247.748,276.671 248.5,276C 260.008,275.174 271.341,275.341 282.5,276.5 Z"/></g>
<g><path style="opacity:0.999" fill="#fff2f0" d="M 48.5,276.5 C 58.015,276.173 67.3483,276.506 76.5,277.5C 72.4939,286.126 68.1605,294.46 63.5,302.5C 62.5207,303.765 61.5207,305.099 60.5,306.5C 66.8893,306.861 72.8893,307.861 78.5,309.5C 77.7124,312.621 75.7124,314.288 72.5,314.5C 64.0968,315.134 56.0968,314.467 48.5,312.5C 50.6524,309.027 52.3191,305.36 53.5,301.5C 54.9063,301.027 55.573,300.027 55.5,298.5C 55.3284,297.508 55.6618,296.842 56.5,296.5C 58.2451,294.967 59.2451,292.967 59.5,290.5C 60.4013,289.71 61.0679,288.71 61.5,287.5C 61.3284,286.508 61.6618,285.842 62.5,285.5C 63.0431,285.44 63.3764,285.107 63.5,284.5C 58.544,283.506 53.544,283.173 48.5,283.5C 47.1667,281.167 47.1667,278.833 48.5,276.5 Z"/></g>
<g><path style="opacity:0.999" fill="#fff6f4" d="M 93.5,276.5 C 96.6085,276.264 99.6085,276.597 102.5,277.5C 102.018,280.831 103.018,283.497 105.5,285.5C 105.5,285.833 105.5,286.167 105.5,286.5C 105.166,289.491 106.166,291.824 108.5,293.5C 108.12,295.698 108.787,297.365 110.5,298.5C 111.967,302.901 113.634,307.234 115.5,311.5C 115.5,312.5 115.5,313.5 115.5,314.5C 112.5,314.5 109.5,314.5 106.5,314.5C 106.448,311.654 105.448,309.32 103.5,307.5C 100.171,307.785 97.1709,307.118 94.5,305.5C 94.6309,304.624 94.2975,303.957 93.5,303.5C 92.2949,304.577 91.6282,305.91 91.5,307.5C 89.7338,311.602 86.7338,314.269 82.5,315.5C 81.448,315.649 80.448,315.483 79.5,315C 80.5541,312.618 81.2208,310.118 81.5,307.5C 83.6404,305.3 85.1404,302.633 86,299.5C 88.9703,291.939 91.4703,284.272 93.5,276.5 Z M 95.5,296.5 C 96.793,295.158 97.6264,293.491 98,291.5C 98.6419,293.762 99.4752,295.929 100.5,298C 98.2018,299.858 96.5352,299.358 95.5,296.5 Z"/></g>
<g><path style="opacity:0.1" fill="#ff484c" d="M 118.5,276.5 C 118.171,289.677 118.505,302.677 119.5,315.5C 120.5,315.5 121.5,315.5 122.5,315.5C 121.469,316.249 120.302,316.915 119,317.5C 118.184,316.177 117.017,315.511 115.5,315.5C 115.5,315.167 115.5,314.833 115.5,314.5C 115.5,313.5 115.5,312.5 115.5,311.5C 116.222,311.082 116.722,310.416 117,309.5C 117.17,298.326 117.67,287.326 118.5,276.5 Z"/></g>
<g><path style="opacity:0.999" fill="#fff7f5" d="M 137.5,276.5 C 140.292,276.622 142.292,277.956 143.5,280.5C 144.833,285.833 144.833,291.167 143.5,296.5C 142.341,298.25 140.674,299.25 138.5,299.5C 136.897,299.312 135.563,299.812 134.5,301C 137.938,302.611 140.938,304.777 143.5,307.5C 144.167,307.5 144.5,307.833 144.5,308.5C 145.529,310.517 146.529,312.517 147.5,314.5C 143.766,314.677 140.099,314.344 136.5,313.5C 134.147,311.14 132.147,308.473 130.5,305.5C 130.672,304.508 130.338,303.842 129.5,303.5C 129.585,302.005 128.919,301.005 127.5,300.5C 126.513,303.768 126.18,307.102 126.5,310.5C 125.92,312.749 124.587,314.415 122.5,315.5C 121.5,315.5 120.5,315.5 119.5,315.5C 119.5,302.5 119.5,289.5 119.5,276.5C 125.5,276.5 131.5,276.5 137.5,276.5 Z M 135.5,285.5 C 135.717,288.421 135.051,291.087 133.5,293.5C 133.167,293.5 132.833,293.5 132.5,293.5C 131.04,292.807 129.374,292.474 127.5,292.5C 127.5,292.167 127.5,291.833 127.5,291.5C 128.468,289.393 128.802,287.059 128.5,284.5C 130.903,284.448 133.236,284.781 135.5,285.5 Z"/></g>
<g><path style="opacity:1" fill="#fff5f5" d="M 178.5,277.5 C 179.492,277.328 180.158,277.662 180.5,278.5C 181.785,280.452 183.451,282.118 185.5,283.5C 186.167,283.5 186.5,283.833 186.5,284.5C 187.982,289.015 188.648,293.681 188.5,298.5C 188.5,299.167 188.5,299.833 188.5,300.5C 187.807,305.852 185.14,309.852 180.5,312.5C 173.602,314.702 166.602,315.036 159.5,313.5C 156.547,312.213 154.214,310.213 152.5,307.5C 152.34,305.847 151.674,304.514 150.5,303.5C 149.566,302.432 149.232,301.099 149.5,299.5C 149.5,296.5 149.5,293.5 149.5,290.5C 149.433,289.041 149.766,287.708 150.5,286.5C 151.906,286.027 152.573,285.027 152.5,283.5C 154.167,282.5 155.5,281.167 156.5,279.5C 156.973,278.094 157.973,277.427 159.5,277.5C 165.833,276.167 172.167,276.167 178.5,277.5 Z M 174.5,285.5 C 176.139,286.473 177.473,287.806 178.5,289.5C 179.446,292.737 179.78,295.737 179.5,298.5C 179.5,298.833 179.5,299.167 179.5,299.5C 178.094,299.973 177.427,300.973 177.5,302.5C 177.167,303.167 176.833,303.833 176.5,304.5C 172.554,306.162 168.554,306.496 164.5,305.5C 163.609,304.89 162.609,304.557 161.5,304.5C 160.492,302.456 159.492,300.456 158.5,298.5C 158.599,295.576 158.933,292.576 159.5,289.5C 160.833,288.167 162.167,286.833 163.5,285.5C 167.167,284.167 170.833,284.167 174.5,285.5 Z"/></g>
<g><path style="opacity:0.999" fill="#fff7f6" d="M 201.5,276.5 C 201.334,285.839 201.5,295.173 202,304.5C 202.383,305.056 202.883,305.389 203.5,305.5C 204.312,306.993 205.645,307.66 207.5,307.5C 209.557,307.564 211.223,306.898 212.5,305.5C 212.557,304.391 212.89,303.391 213.5,302.5C 214.451,301.081 214.784,299.415 214.5,297.5C 213.81,293.51 213.643,289.51 214,285.5C 214.139,282.555 215.306,280.221 217.5,278.5C 219.167,277.833 220.833,277.167 222.5,276.5C 222.733,286.865 222.4,297.198 221.5,307.5C 220.581,310.089 218.914,312.089 216.5,313.5C 210.833,314.833 205.167,314.833 199.5,313.5C 198.738,311.738 197.404,310.738 195.5,310.5C 195.029,308.421 194.363,306.421 193.5,304.5C 193.5,295.167 193.5,285.833 193.5,276.5C 196.167,276.5 198.833,276.5 201.5,276.5 Z"/></g>
<g><path style="opacity:0.999" fill="#fff1eb" d="M 237.5,276.5 C 237.334,281.179 237.501,285.845 238,290.5C 238.333,290.833 238.667,291.167 239,291.5C 239.655,289.372 240.489,287.372 241.5,285.5C 244.243,283.761 246.243,281.427 247.5,278.5C 251.388,276.311 255.388,275.977 259.5,277.5C 255.401,282.774 251.067,287.941 246.5,293C 251.53,295.858 254.864,300.025 256.5,305.5C 256.427,307.027 257.094,308.027 258.5,308.5C 258.5,309.167 258.833,309.5 259.5,309.5C 259.5,310.167 259.833,310.5 260.5,310.5C 260.5,311.167 260.5,311.833 260.5,312.5C 260.5,312.833 260.5,313.167 260.5,313.5C 257.375,314.479 254.042,314.813 250.5,314.5C 248.326,311.485 246.659,308.151 245.5,304.5C 244.955,302.407 244.122,300.407 243,298.5C 242.023,297.226 241.189,297.226 240.5,298.5C 238.852,302.749 237.352,307.082 236,311.5C 234.629,313.041 233.129,314.375 231.5,315.5C 230.833,315.5 230.167,315.5 229.5,315.5C 229.5,302.5 229.5,289.5 229.5,276.5C 232.167,276.5 234.833,276.5 237.5,276.5 Z"/></g>
<g><path style="opacity:0.999" fill="#fff3f1" d="M 262.5,276.5 C 269.167,276.5 275.833,276.5 282.5,276.5C 283.833,278.833 283.833,281.167 282.5,283.5C 280.5,283.5 278.5,283.5 276.5,283.5C 276.5,291.5 276.5,299.5 276.5,307.5C 278.5,307.5 280.5,307.5 282.5,307.5C 283.822,309.802 283.822,312.135 282.5,314.5C 275.678,315.818 269.011,315.818 262.5,314.5C 262.5,312.167 262.5,309.833 262.5,307.5C 264.5,307.5 266.5,307.5 268.5,307.5C 267.953,300.26 268.62,293.26 270.5,286.5C 271.478,286.189 272.145,285.522 272.5,284.5C 269.232,283.513 265.898,283.18 262.5,283.5C 262.5,281.5 262.5,279.5 262.5,277.5C 262.5,277.167 262.5,276.833 262.5,276.5 Z"/></g>
<g><path style="opacity:0.999" fill="#fff5f2" d="M 320.5,276.5 C 320.166,279.491 321.166,281.824 323.5,283.5C 323.12,285.698 323.787,287.365 325.5,288.5C 326.363,290.421 327.029,292.421 327.5,294.5C 327.12,296.698 327.787,298.365 329.5,299.5C 330.363,301.421 331.029,303.421 331.5,305.5C 331.12,307.698 331.787,309.365 333.5,310.5C 333.5,311.833 333.5,313.167 333.5,314.5C 330.145,314.909 327.145,314.242 324.5,312.5C 324.598,310.447 323.931,308.78 322.5,307.5C 319.123,307.932 316.123,307.265 313.5,305.5C 313.179,303.952 312.179,303.285 310.5,303.5C 310.5,304.833 310.5,306.167 310.5,307.5C 308.767,311.565 305.767,314.232 301.5,315.5C 299.821,315.715 298.821,315.048 298.5,313.5C 298.557,312.391 298.89,311.391 299.5,310.5C 304.599,299.548 308.932,288.215 312.5,276.5C 315.167,275.167 317.833,275.167 320.5,276.5 Z M 317.5,292.5 C 317.833,294.5 318.167,296.5 318.5,298.5C 316.128,300.148 314.794,299.481 314.5,296.5C 314.5,296.167 314.5,295.833 314.5,295.5C 315.1,294.1 316.1,293.1 317.5,292.5 Z"/></g>
<g><path style="opacity:0.153" fill="#ff692d" d="M 201.5,276.5 C 202.215,286.037 202.882,295.704 203.5,305.5C 202.883,305.389 202.383,305.056 202,304.5C 201.5,295.173 201.334,285.839 201.5,276.5 Z"/></g>
<g><path style="opacity:0.898" fill="#ff99a6" d="M 223.5,276.5 C 223.167,276.5 222.833,276.5 222.5,276.5C 220.833,277.167 219.167,277.833 217.5,278.5C 218.92,275.651 220.92,274.984 223.5,276.5 Z"/></g>
<g><path style="opacity:0.667" fill="#ffcb95" d="M 222.5,276.5 C 222.833,276.5 223.167,276.5 223.5,276.5C 223.666,285.839 223.5,295.173 223,304.5C 222.768,305.737 222.268,306.737 221.5,307.5C 222.4,297.198 222.733,286.865 222.5,276.5 Z"/></g>
<g><path style="opacity:0.062" fill="#ff4349" d="M 228.5,276.5 C 228.171,289.677 228.505,302.677 229.5,315.5C 230.167,315.5 230.833,315.5 231.5,315.5C 230.432,316.434 229.099,316.768 227.5,316.5C 227.171,302.99 227.504,289.656 228.5,276.5 Z"/></g>
<g><path style="opacity:0.969" fill="#ffc1de" d="M 137.5,276.5 C 131.5,276.5 125.5,276.5 119.5,276.5C 119.5,289.5 119.5,302.5 119.5,315.5C 118.505,302.677 118.171,289.677 118.5,276.5C 124.833,275.167 131.167,275.167 137.5,276.5 Z"/></g>
<g><path style="opacity:0.83" fill="#ff8da5" d="M 201.5,276.5 C 198.833,276.5 196.167,276.5 193.5,276.5C 193.5,285.833 193.5,295.167 193.5,304.5C 193.167,304.5 192.833,304.5 192.5,304.5C 191.787,295.396 191.62,286.063 192,276.5C 195.269,275.182 198.435,275.182 201.5,276.5 Z"/></g>
<g><path style="opacity:0.826" fill="#ffafd7" d="M 237.5,276.5 C 234.833,276.5 232.167,276.5 229.5,276.5C 229.5,289.5 229.5,302.5 229.5,315.5C 228.505,302.677 228.171,289.677 228.5,276.5C 231.5,275.167 234.5,275.167 237.5,276.5 Z"/></g>
<g><path style="opacity:0.018" fill="#ff3435" d="M 262.5,277.5 C 262.5,279.5 262.5,281.5 262.5,283.5C 259.833,281.5 259.833,279.5 262.5,277.5 Z"/></g>
<g><path style="opacity:0.216" fill="#ff607f" d="M 457.5,276.5 C 457.573,278.027 456.906,279.027 455.5,279.5C 455.427,277.973 456.094,276.973 457.5,276.5 Z"/></g>
<g><path style="opacity:0.969" fill="#ffb18c" d="M 180.5,278.5 C 183.189,279.189 184.856,280.856 185.5,283.5C 183.451,282.118 181.785,280.452 180.5,278.5 Z"/></g>
<g><path style="opacity:0.933" fill="#ffaf85" d="M 320.5,276.5 C 322.065,278.509 323.065,280.843 323.5,283.5C 321.166,281.824 320.166,279.491 320.5,276.5 Z"/></g>
<g><path style="opacity:0.58" fill="#ff7995" d="M 156.5,279.5 C 155.5,281.167 154.167,282.5 152.5,283.5C 152.833,281.167 154.167,279.833 156.5,279.5 Z"/></g>
<g><path style="opacity:0.949" fill="#ffa37b" d="M 102.5,277.5 C 104.02,279.89 105.02,282.557 105.5,285.5C 103.018,283.497 102.018,280.831 102.5,277.5 Z"/></g>
<g><path style="opacity:0.776" fill="#ff91ab" d="M 247.5,278.5 C 246.243,281.427 244.243,283.761 241.5,285.5C 242.757,282.573 244.757,280.239 247.5,278.5 Z"/></g>
<g><path style="opacity:0.236" fill="#ff7e2f" d="M 375.5,280.5 C 376.344,283.345 377.01,286.345 377.5,289.5C 377.217,290.289 376.717,290.956 376,291.5C 375.501,287.848 375.335,284.182 375.5,280.5 Z"/></g>
<g><path style="opacity:0.185" fill="#ff666c" d="M 48.5,283.5 C 53.544,283.173 58.544,283.506 63.5,284.5C 63.3764,285.107 63.0431,285.44 62.5,285.5C 57.8333,284.833 53.1667,284.167 48.5,283.5 Z"/></g>
<g><path style="opacity:0.22" fill="#ff5a51" d="M 135.5,285.5 C 133.236,284.781 130.903,284.448 128.5,284.5C 128.802,287.059 128.468,289.393 127.5,291.5C 127.5,288.833 127.5,286.167 127.5,283.5C 129.857,283.337 132.19,283.503 134.5,284C 135.056,284.383 135.389,284.883 135.5,285.5 Z"/></g>
<g><path style="opacity:0.211" fill="#ff656c" d="M 262.5,283.5 C 265.898,283.18 269.232,283.513 272.5,284.5C 272.145,285.522 271.478,286.189 270.5,286.5C 268.143,284.902 265.477,283.902 262.5,283.5 Z"/></g>
<g><path style="opacity:0.024" fill="#ff5454" d="M 174.5,285.5 C 170.833,284.167 167.167,284.167 163.5,285.5C 167.167,282.833 170.833,282.833 174.5,285.5 Z"/></g>
<g><path style="opacity:0.38" fill="#ff6594" d="M 152.5,283.5 C 152.573,285.027 151.906,286.027 150.5,286.5C 150.427,284.973 151.094,283.973 152.5,283.5 Z"/></g>
<g><path style="opacity:0.398" fill="#ff725d" d="M 282.5,283.5 C 281.081,284.451 279.415,284.784 277.5,284.5C 278.663,291.843 278.83,299.176 278,306.5C 278.333,306.167 278.667,305.833 279,305.5C 280.302,306.085 281.469,306.751 282.5,307.5C 280.5,307.5 278.5,307.5 276.5,307.5C 276.5,299.5 276.5,291.5 276.5,283.5C 278.5,283.5 280.5,283.5 282.5,283.5 Z"/></g>
<g><path style="opacity:0.376" fill="#ff5580" d="M 455.5,279.5 C 456.055,283.012 455.388,286.012 453.5,288.5C 453.99,285.345 454.656,282.345 455.5,279.5 Z"/></g>
<g><path style="opacity:0.851" fill="#ff9c6e" d="M 143.5,280.5 C 144.117,280.611 144.617,280.944 145,281.5C 146.872,286.152 146.872,290.818 145,295.5C 144.617,296.056 144.117,296.389 143.5,296.5C 144.833,291.167 144.833,285.833 143.5,280.5 Z"/></g>
<g><path style="opacity:0.722" fill="#ff8f62" d="M 323.5,283.5 C 324.537,284.93 325.204,286.597 325.5,288.5C 323.787,287.365 323.12,285.698 323.5,283.5 Z"/></g>
<g><path style="opacity:0.116" fill="#ff446f" d="M 135.5,285.5 C 136.622,287.288 136.789,289.288 136,291.5C 135.583,292.756 134.75,293.423 133.5,293.5C 135.051,291.087 135.717,288.421 135.5,285.5 Z"/></g>
<g><path style="opacity:0.596" fill="#ff8380" d="M 237.5,276.5 C 238.323,279.977 238.823,283.644 239,287.5C 239.708,286.619 240.542,285.953 241.5,285.5C 240.489,287.372 239.655,289.372 239,291.5C 238.667,291.167 238.333,290.833 238,290.5C 237.501,285.845 237.334,281.179 237.5,276.5 Z"/></g>
<g><path style="opacity:0.016" fill="#ff3950" d="M 61.5,287.5 C 61.0679,288.71 60.4013,289.71 59.5,290.5C 59.2852,288.821 59.9519,287.821 61.5,287.5 Z"/></g>
<g><path style="opacity:0.655" fill="#ff7492" d="M 93.5,276.5 C 91.4703,284.272 88.9703,291.939 86,299.5C 85.1404,302.633 83.6404,305.3 81.5,307.5C 84.7333,296.789 88.7333,286.455 93.5,276.5 Z"/></g>
<g><path style="opacity:0.957" fill="#ffaf7d" d="M 105.5,286.5 C 107.065,288.509 108.065,290.843 108.5,293.5C 106.166,291.824 105.166,289.491 105.5,286.5 Z"/></g>
<g><path style="opacity:0.999" fill="#ffeeeb" d="M 356.5,289.5 C 358.118,291.785 360.118,293.785 362.5,295.5C 362.5,296.833 362.5,298.167 362.5,299.5C 358.572,300.024 355.239,299.024 352.5,296.5C 349.756,294.942 347.59,295.609 346,298.5C 345.037,302.149 345.537,305.482 347.5,308.5C 351.623,310.524 353.956,309.191 354.5,304.5C 357.167,304.5 359.833,304.5 362.5,304.5C 362.5,305.833 362.5,307.167 362.5,308.5C 358.602,315.606 352.602,318.106 344.5,316C 341.894,315.208 339.894,313.708 338.5,311.5C 335.103,303.764 336.103,296.764 341.5,290.5C 342.688,289.636 343.855,288.636 345,287.5C 348.83,288.199 352.663,288.866 356.5,289.5 Z"/></g>
<g><path style="opacity:0.374" fill="#ff607e" d="M 397.5,288.5 C 397.5,297.167 397.5,305.833 397.5,314.5C 400.5,314.5 403.5,314.5 406.5,314.5C 405.626,315.525 404.459,316.192 403,316.5C 400.901,315.713 398.734,315.38 396.5,315.5C 395.533,306.623 395.866,297.623 397.5,288.5 Z"/></g>
<g><path style="opacity:0.999" fill="#fff0ec" d="M 414.5,288.5 C 415.036,291.698 414.369,294.365 412.5,296.5C 410.097,296.393 408.264,297.393 407,299.5C 407.102,304.418 406.935,309.418 406.5,314.5C 403.5,314.5 400.5,314.5 397.5,314.5C 397.5,305.833 397.5,297.167 397.5,288.5C 400.089,288.461 402.089,289.461 403.5,291.5C 404.779,292.715 405.779,292.382 406.5,290.5C 407.122,289.373 407.955,288.373 409,287.5C 410.699,288.406 412.533,288.739 414.5,288.5 Z"/></g>
<g><path style="opacity:0.999" fill="#fff3f3" d="M 446.5,288.5 C 446.5,297.167 446.5,305.833 446.5,314.5C 445.5,314.5 444.5,314.5 443.5,314.5C 441.956,314.297 440.622,313.63 439.5,312.5C 438.482,313.193 437.482,313.859 436.5,314.5C 432.548,315.272 428.548,315.605 424.5,315.5C 423.415,313.413 421.749,312.08 419.5,311.5C 417.186,305.99 416.853,300.323 418.5,294.5C 420.167,293.5 421.5,292.167 422.5,290.5C 423.688,289.636 424.855,288.636 426,287.5C 428.333,288.833 430.667,288.833 433,287.5C 436.856,292.313 440.523,292.313 444,287.5C 444.671,288.252 445.504,288.586 446.5,288.5 Z M 436.5,306.5 C 433.265,309.072 430.265,308.739 427.5,305.5C 427.401,302.763 427.735,300.096 428.5,297.5C 431.735,295.147 434.568,295.814 437,299.5C 437.556,301.885 437.39,304.218 436.5,306.5 Z"/></g>
<g><path style="opacity:0.379" fill="#ff7834" d="M 443.5,314.5 C 444.5,314.5 445.5,314.5 446.5,314.5C 446.5,305.833 446.5,297.167 446.5,288.5C 446.81,287.262 447.31,287.262 448,288.5C 448.716,297.527 448.549,306.527 447.5,315.5C 445.901,315.768 444.568,315.434 443.5,314.5 Z"/></g>
<g><path style="opacity:0.02" fill="#ff453c" d="M 468.5,288.5 C 469.947,289.134 470.613,290.301 470.5,292C 470.613,293.699 469.947,294.866 468.5,295.5C 468.5,293.167 468.5,290.833 468.5,288.5 Z"/></g>
<g><path style="opacity:0.886" fill="#ff916f" d="M 356.5,289.5 C 359.522,290.522 361.522,292.522 362.5,295.5C 360.118,293.785 358.118,291.785 356.5,289.5 Z"/></g>
<g><path style="opacity:0.681" fill="#ffaa87" d="M 414.5,288.5 C 415.477,291.287 415.81,294.287 415.5,297.5C 414.209,297.737 413.209,297.404 412.5,296.5C 414.369,294.365 415.036,291.698 414.5,288.5 Z"/></g>
<g><path style="opacity:0.01" fill="#ff402d" d="M 189.5,291.5 C 190.634,293.966 190.801,296.633 190,299.5C 189.617,300.056 189.117,300.389 188.5,300.5C 188.5,299.833 188.5,299.167 188.5,298.5C 189.468,296.393 189.802,294.059 189.5,291.5 Z"/></g>
<g><path style="opacity:0.659" fill="#ff7792" d="M 312.5,276.5 C 308.932,288.215 304.599,299.548 299.5,310.5C 302.575,298.978 306.908,287.645 312.5,276.5 Z"/></g>
<g><path style="opacity:0.224" fill="#ff455f" d="M 406.5,290.5 C 405.779,292.382 404.779,292.715 403.5,291.5C 404.391,290.89 405.391,290.557 406.5,290.5 Z"/></g>
<g><path style="opacity:0.584" fill="#ff6c8e" d="M 341.5,290.5 C 336.103,296.764 335.103,303.764 338.5,311.5C 336.821,310 335.488,308.167 334.5,306C 335.833,303.667 335.833,301.333 334.5,299C 335.322,294.821 337.656,291.988 341.5,290.5 Z"/></g>
<g><path style="opacity:0.467" fill="#ff6788" d="M 422.5,290.5 C 421.5,292.167 420.167,293.5 418.5,294.5C 418.833,292.167 420.167,290.833 422.5,290.5 Z"/></g>
<g><path style="opacity:0.278" fill="#ff635c" d="M 127.5,292.5 C 129.374,292.474 131.04,292.807 132.5,293.5C 131.903,294.139 131.07,294.472 130,294.5C 128.624,294.316 127.791,293.649 127.5,292.5 Z"/></g>
<g><path style="opacity:0.542" fill="#ffab82" d="M 159.5,289.5 C 158.933,292.576 158.599,295.576 158.5,298.5C 157.366,296.034 157.199,293.367 158,290.5C 158.383,289.944 158.883,289.611 159.5,289.5 Z"/></g>
<g><path style="opacity:0.29" fill="#ff557e" d="M 270.5,286.5 C 268.62,293.26 267.953,300.26 268.5,307.5C 266.5,307.5 264.5,307.5 262.5,307.5C 263.952,306.698 265.618,306.198 267.5,306C 267.53,302.361 267.196,298.694 266.5,295C 267.264,292.931 267.764,290.764 268,288.5C 268.708,287.619 269.542,286.953 270.5,286.5 Z"/></g>
<g><path style="opacity:0.343" fill="#ff3680" d="M 149.5,290.5 C 149.5,293.5 149.5,296.5 149.5,299.5C 146.833,296.5 146.833,293.5 149.5,290.5 Z"/></g>
<g><path style="opacity:0.076" fill="#ff5e9b" d="M 178.5,289.5 C 179.117,289.611 179.617,289.944 180,290.5C 180.801,293.367 180.634,296.034 179.5,298.5C 179.78,295.737 179.446,292.737 178.5,289.5 Z"/></g>
<g><path style="opacity:0.602" fill="#ffbb87" d="M 186.5,284.5 C 188.065,286.509 189.065,288.843 189.5,291.5C 189.802,294.059 189.468,296.393 188.5,298.5C 188.648,293.681 187.982,289.015 186.5,284.5 Z"/></g>
<g><path style="opacity:0.145" fill="#ff785a" d="M 317.5,292.5 C 316.1,293.1 315.1,294.1 314.5,295.5C 314.247,293.173 314.914,291.173 316.5,289.5C 317.386,290.325 317.719,291.325 317.5,292.5 Z"/></g>
<g><path style="opacity:0.384" fill="#ff5e79" d="M 59.5,290.5 C 59.2451,292.967 58.2451,294.967 56.5,296.5C 56.7549,294.033 57.7549,292.033 59.5,290.5 Z"/></g>
<g><path style="opacity:0.385" fill="#ff5384" d="M 453.5,295.5 C 455.456,301.412 456.123,307.745 455.5,314.5C 455.167,314.5 454.833,314.5 454.5,314.5C 453.569,308.075 453.236,301.741 453.5,295.5 Z"/></g>
<g><path style="opacity:0.371" fill="#ff6f5d" d="M 464.5,295.5 C 465.741,302.146 465.741,308.813 464.5,315.5C 461.093,316.268 457.76,315.934 454.5,314.5C 454.833,314.5 455.167,314.5 455.5,314.5C 458.167,314.5 460.833,314.5 463.5,314.5C 463.177,307.978 463.51,301.645 464.5,295.5 Z"/></g>
<g><path style="opacity:0.741" fill="#ff8e5e" d="M 108.5,293.5 C 109.537,294.93 110.204,296.597 110.5,298.5C 108.787,297.365 108.12,295.698 108.5,293.5 Z"/></g>
<g><path style="opacity:0.014" fill="#ff3b86" d="M 214.5,297.5 C 214.784,299.415 214.451,301.081 213.5,302.5C 213.062,302.565 212.728,302.399 212.5,302C 213.099,300.378 213.766,298.878 214.5,297.5 Z"/></g>
<g><path style="opacity:0.816" fill="#ff9b6a" d="M 327.5,294.5 C 328.537,295.93 329.204,297.597 329.5,299.5C 327.787,298.365 327.12,296.698 327.5,294.5 Z"/></g>
<g><path style="opacity:0.295" fill="#ff6456" d="M 392.5,295.5 C 393.268,296.263 393.768,297.263 394,298.5C 394.667,303.5 394.667,308.5 394,313.5C 392.475,314.72 390.641,315.387 388.5,315.5C 386.631,315.493 384.964,315.16 383.5,314.5C 383.833,314.5 384.167,314.5 384.5,314.5C 387.167,314.5 389.833,314.5 392.5,314.5C 392.5,308.167 392.5,301.833 392.5,295.5 Z"/></g>
<g><path style="opacity:0.388" fill="#ff7270" d="M 95.5,296.5 C 95.2639,293.774 96.0972,291.441 98,289.5C 100.064,292.86 101.231,296.526 101.5,300.5C 99.1667,300.5 96.8333,300.5 94.5,300.5C 94.2322,298.901 94.5655,297.568 95.5,296.5 Z M 95.5,296.5 C 96.5352,299.358 98.2018,299.858 100.5,298C 99.4752,295.929 98.6419,293.762 98,291.5C 97.6264,293.491 96.793,295.158 95.5,296.5 Z"/></g>
<g><path style="opacity:0.353" fill="#ff6b85" d="M 240.5,298.5 C 241.189,297.226 242.023,297.226 243,298.5C 244.122,300.407 244.955,302.407 245.5,304.5C 243.833,302.5 242.167,300.5 240.5,298.5 Z"/></g>
<g><path style="opacity:0.384" fill="#ff747a" d="M 317.5,292.5 C 319.655,294.617 320.655,297.284 320.5,300.5C 318.167,300.5 315.833,300.5 313.5,300.5C 313.232,298.901 313.566,297.568 314.5,296.5C 314.794,299.481 316.128,300.148 318.5,298.5C 318.167,296.5 317.833,294.5 317.5,292.5 Z"/></g>
<g><path style="opacity:0.503" fill="#ff7d7d" d="M 362.5,295.5 C 363.139,296.097 363.472,296.93 363.5,298C 363.316,299.376 362.649,300.209 361.5,300.5C 359.167,300.5 356.833,300.5 354.5,300.5C 353.326,299.486 352.66,298.153 352.5,296.5C 355.239,299.024 358.572,300.024 362.5,299.5C 362.5,298.167 362.5,296.833 362.5,295.5 Z"/></g>
<g><path style="opacity:0.459" fill="#ff618d" d="M 382.5,296.5 C 383.117,296.611 383.617,296.944 384,297.5C 384.499,303.157 384.666,308.824 384.5,314.5C 384.167,314.5 383.833,314.5 383.5,314.5C 383.069,308.751 382.736,302.751 382.5,296.5 Z"/></g>
<g><path style="opacity:0.153" fill="#ff4a65" d="M 55.5,298.5 C 55.573,300.027 54.9063,301.027 53.5,301.5C 53.427,299.973 54.0937,298.973 55.5,298.5 Z"/></g>
<g><path style="opacity:0.157" fill="#ff6f53" d="M 138.5,299.5 C 140.167,302.167 141.833,304.833 143.5,307.5C 140.938,304.777 137.938,302.611 134.5,301C 135.563,299.812 136.897,299.312 138.5,299.5 Z"/></g>
<g><path style="opacity:0.051" fill="#ff405a" d="M 179.5,299.5 C 179.573,301.027 178.906,302.027 177.5,302.5C 177.427,300.973 178.094,299.973 179.5,299.5 Z"/></g>
<g><path style="opacity:0.216" fill="#ff7858" d="M 428.5,297.5 C 427.735,300.096 427.401,302.763 427.5,305.5C 426.848,304.551 426.514,303.385 426.5,302C 426.307,299.992 426.974,298.492 428.5,297.5 Z"/></g>
<g><path style="opacity:0.595" fill="#ffb092" d="M 129.5,303.5 C 129.167,303.5 128.833,303.5 128.5,303.5C 128.167,302.167 127.833,302.167 127.5,303.5C 127.5,304.5 127.5,305.5 127.5,306.5C 127.768,308.099 127.434,309.432 126.5,310.5C 126.18,307.102 126.513,303.768 127.5,300.5C 128.919,301.005 129.585,302.005 129.5,303.5 Z"/></g>
<g><path style="opacity:0.659" fill="#ffa77d" d="M 158.5,298.5 C 159.492,300.456 160.492,302.456 161.5,304.5C 159.025,303.313 158.025,301.313 158.5,298.5 Z"/></g>
<g><path style="opacity:0.162" fill="#ff4d4b" d="M 354.5,300.5 C 356.833,300.5 359.167,300.5 361.5,300.5C 360.737,301.268 359.737,301.768 358.5,302C 361.193,302.343 363.193,303.676 364.5,306C 363.934,306.995 363.267,307.828 362.5,308.5C 362.5,307.167 362.5,305.833 362.5,304.5C 359.833,304.5 357.167,304.5 354.5,304.5C 353.956,309.191 351.623,310.524 347.5,308.5C 348.688,307.316 349.855,307.316 351,308.5C 352.681,306.452 354.181,304.285 355.5,302C 354.944,301.617 354.611,301.117 354.5,300.5 Z"/></g>
<g><path style="opacity:0.004" fill="#ff4340" d="M 127.5,303.5 C 127.833,303.5 128.167,303.5 128.5,303.5C 128.833,303.5 129.167,303.5 129.5,303.5C 130.338,303.842 130.672,304.508 130.5,305.5C 129.391,305.557 128.391,305.89 127.5,306.5C 127.5,305.5 127.5,304.5 127.5,303.5 Z"/></g>
<g><path style="opacity:0.318" fill="#ff6082" d="M 150.5,303.5 C 151.674,304.514 152.34,305.847 152.5,307.5C 150.238,306.655 149.571,305.322 150.5,303.5 Z"/></g>
<g><path style="opacity:0.71" fill="#ff9c86" d="M 313.5,305.5 C 312.222,305.782 311.222,306.449 310.5,307.5C 310.5,306.167 310.5,304.833 310.5,303.5C 312.179,303.285 313.179,303.952 313.5,305.5 Z"/></g>
<g><path style="opacity:0.01" fill="#ff592e" d="M 376.5,300.5 C 377.368,304.808 377.534,309.141 377,313.5C 376.617,314.056 376.117,314.389 375.5,314.5C 375.181,309.637 375.514,304.97 376.5,300.5 Z"/></g>
<g><path style="opacity:0.035" fill="#ff6756" d="M 94.5,305.5 C 93.5,306.167 92.5,306.833 91.5,307.5C 91.6282,305.91 92.2949,304.577 93.5,303.5C 94.2975,303.957 94.6309,304.624 94.5,305.5 Z"/></g>
<g><path style="opacity:0.261" fill="#ff6a5d" d="M 63.5,302.5 C 63.5,303.833 63.5,305.167 63.5,306.5C 68.8333,306.5 74.1667,306.5 79.5,306.5C 79.5,307.5 79.5,308.5 79.5,309.5C 79.1667,309.5 78.8333,309.5 78.5,309.5C 72.8893,307.861 66.8893,306.861 60.5,306.5C 61.5207,305.099 62.5207,303.765 63.5,302.5 Z"/></g>
<g><path style="opacity:0.259" fill="#ff6668" d="M 176.5,304.5 C 174.456,306.432 171.956,307.432 169,307.5C 166.992,307.693 165.492,307.026 164.5,305.5C 168.554,306.496 172.554,306.162 176.5,304.5 Z"/></g>
<g><path style="opacity:0.26" fill="#ff6b68" d="M 203.5,305.5 C 206.477,306.678 209.477,306.678 212.5,305.5C 211.223,306.898 209.557,307.564 207.5,307.5C 205.645,307.66 204.312,306.993 203.5,305.5 Z"/></g>
<g><path style="opacity:0.369" fill="#ff8a58" d="M 256.5,305.5 C 257.906,305.973 258.573,306.973 258.5,308.5C 257.094,308.027 256.427,307.027 256.5,305.5 Z"/></g>
<g><path style="opacity:0.008" fill="#ff5439" d="M 144.5,308.5 C 147.978,309.928 148.978,312.261 147.5,315.5C 147.5,315.167 147.5,314.833 147.5,314.5C 146.529,312.517 145.529,310.517 144.5,308.5 Z"/></g>
<g><path style="opacity:0.008" fill="#ff5a72" d="M 192.5,304.5 C 192.833,304.5 193.167,304.5 193.5,304.5C 194.363,306.421 195.029,308.421 195.5,310.5C 193.461,309.089 192.461,307.089 192.5,304.5 Z"/></g>
<g><path style="opacity:0.048" fill="#ff3b3a" d="M 262.5,307.5 C 262.5,309.833 262.5,312.167 262.5,314.5C 262.167,314.5 261.833,314.5 261.5,314.5C 261.5,313.833 261.167,313.5 260.5,313.5C 260.5,313.167 260.5,312.833 260.5,312.5C 261.833,311.833 261.833,311.167 260.5,310.5C 259.833,310.5 259.5,310.167 259.5,309.5C 258.833,309.5 258.5,309.167 258.5,308.5C 259.959,308.567 261.292,308.234 262.5,307.5 Z"/></g>
<g><path style="opacity:0.875" fill="#ff9f6e" d="M 331.5,305.5 C 332.931,306.78 333.598,308.447 333.5,310.5C 331.787,309.365 331.12,307.698 331.5,305.5 Z"/></g>
<g><path style="opacity:0.133" fill="#ff5871" d="M 418.5,294.5 C 416.853,300.323 417.186,305.99 419.5,311.5C 418.21,310.942 417.377,309.942 417,308.5C 416.774,305.905 416.274,303.405 415.5,301C 416.132,298.585 417.132,296.418 418.5,294.5 Z"/></g>
<g><path style="opacity:0.345" fill="#ff837e" d="M 427.5,305.5 C 430.265,308.739 433.265,309.072 436.5,306.5C 434.554,309.814 431.887,310.314 428.5,308C 427.748,307.329 427.414,306.496 427.5,305.5 Z"/></g>
<g><path style="opacity:0.082" fill="#ff475c" d="M 53.5,301.5 C 52.3191,305.36 50.6524,309.027 48.5,312.5C 48.1667,312.5 47.8333,312.5 47.5,312.5C 48.7417,308.345 50.7417,304.678 53.5,301.5 Z"/></g>
<g><path style="opacity:0.78" fill="#ff879c" d="M 195.5,310.5 C 197.404,310.738 198.738,311.738 199.5,313.5C 197.596,313.262 196.262,312.262 195.5,310.5 Z"/></g>
<g><path style="opacity:0.545" fill="#ff7eaa" d="M 322.5,307.5 C 323.931,308.78 324.598,310.447 324.5,312.5C 323.069,311.22 322.402,309.553 322.5,307.5 Z"/></g>
<g><path style="opacity:0.863" fill="#ff91a6" d="M 419.5,311.5 C 421.749,312.08 423.415,313.413 424.5,315.5C 422.251,314.92 420.585,313.587 419.5,311.5 Z"/></g>
<g><path style="opacity:0.424" fill="#ff888d" d="M 47.5,312.5 C 47.8333,312.5 48.1667,312.5 48.5,312.5C 56.0968,314.467 64.0968,315.134 72.5,314.5C 64.3437,315.657 56.0104,315.823 47.5,315C 46.2264,314.023 46.2264,313.189 47.5,312.5 Z"/></g>
<g><path style="opacity:0.18" fill="#ff515e" d="M 81.5,307.5 C 81.2208,310.118 80.5541,312.618 79.5,315C 80.448,315.483 81.448,315.649 82.5,315.5C 80.8151,316.844 79.1484,316.677 77.5,315C 78.8613,313.416 79.528,311.582 79.5,309.5C 80.1667,308.833 80.8333,308.167 81.5,307.5 Z"/></g>
<g><path style="opacity:0.453" fill="#ff8793" d="M 103.5,307.5 C 105.448,309.32 106.448,311.654 106.5,314.5C 109.5,314.5 112.5,314.5 115.5,314.5C 115.5,314.833 115.5,315.167 115.5,315.5C 112.167,315.5 108.833,315.5 105.5,315.5C 104.003,312.82 103.336,310.154 103.5,307.5 Z"/></g>
<g><path style="opacity:0.443" fill="#ff9599" d="M 136.5,313.5 C 140.099,314.344 143.766,314.677 147.5,314.5C 147.5,314.833 147.5,315.167 147.5,315.5C 144.15,315.665 140.817,315.498 137.5,315C 136.944,314.617 136.611,314.117 136.5,313.5 Z"/></g>
<g><path style="opacity:0.408" fill="#ff847e" d="M 180.5,312.5 C 177.149,314.893 173.316,315.893 169,315.5C 165.523,315.672 162.356,315.006 159.5,313.5C 166.602,315.036 173.602,314.702 180.5,312.5 Z"/></g>
<g><path style="opacity:0.398" fill="#ff8b86" d="M 199.5,313.5 C 205.167,314.833 210.833,314.833 216.5,313.5C 213.983,314.973 211.15,315.64 208,315.5C 204.85,315.64 202.017,314.973 199.5,313.5 Z"/></g>
<g><path style="opacity:0.445" fill="#ff8d88" d="M 260.5,313.5 C 261.167,313.5 261.5,313.833 261.5,314.5C 257.833,315.833 254.167,315.833 250.5,314.5C 254.042,314.813 257.375,314.479 260.5,313.5 Z"/></g>
<g><path style="opacity:0.445" fill="#ff9188" d="M 333.5,310.5 C 334.451,311.919 334.784,313.585 334.5,315.5C 331.167,315.5 327.833,315.5 324.5,315.5C 324.5,314.5 324.5,313.5 324.5,312.5C 327.145,314.242 330.145,314.909 333.5,314.5C 333.5,313.167 333.5,311.833 333.5,310.5 Z"/></g>
<g><path style="opacity:0.345" fill="#ff6d75" d="M 298.5,313.5 C 298.821,315.048 299.821,315.715 301.5,315.5C 300.432,316.434 299.099,316.768 297.5,316.5C 297.263,315.209 297.596,314.209 298.5,313.5 Z"/></g>
<g><path style="opacity:0.41" fill="#ff7f79" d="M 436.5,314.5 C 434.538,316.017 432.205,316.684 429.5,316.5C 427.631,316.493 425.964,316.16 424.5,315.5C 428.548,315.605 432.548,315.272 436.5,314.5 Z"/></g>
<g><path style="opacity:1" fill="#ad74d6" d="M 494.5,318.5 C 486.541,316.161 481.208,318.495 478.5,325.5C 477.833,326.833 476.833,327.833 475.5,328.5C 475.565,328.062 475.399,327.728 475,327.5C 471.32,331.154 470.487,335.488 472.5,340.5C 471.542,340.047 470.708,339.381 470,338.5C 464.655,318.847 471.822,311.347 491.5,316C 492.942,316.377 493.942,317.21 494.5,318.5 Z"/></g>
<g><path style="opacity:0.871" fill="#aa4ca8" d="M 494.5,318.5 C 495.222,318.918 495.722,319.584 496,320.5C 496.667,326.167 496.667,331.833 496,337.5C 495.34,339.324 494.173,340.657 492.5,341.5C 494.204,333.967 494.871,326.3 494.5,318.5 Z"/></g>
<g><path style="opacity:1" fill="#edecfe" d="M 478.5,325.5 C 478.765,327.738 478.932,330.071 479,332.5C 477.624,331.295 476.458,329.962 475.5,328.5C 476.833,327.833 477.833,326.833 478.5,325.5 Z"/></g>
<g><path style="opacity:1" fill="#6d63f2" d="M 494.5,318.5 C 494.871,326.3 494.204,333.967 492.5,341.5C 486.248,342.624 479.915,342.79 473.5,342C 472.944,341.617 472.611,341.117 472.5,340.5C 470.487,335.488 471.32,331.154 475,327.5C 475.399,327.728 475.565,328.062 475.5,328.5C 476.458,329.962 477.624,331.295 479,332.5C 478.932,330.071 478.765,327.738 478.5,325.5C 481.208,318.495 486.541,316.161 494.5,318.5 Z"/></g>
<g><path style="opacity:1" fill="#a8a9fc" d="M 486.5,325.5 C 486.5,326.167 486.5,326.833 486.5,327.5C 485.883,327.389 485.383,327.056 485,326.5C 483.928,329.218 482.762,331.885 481.5,334.5C 481.167,334.167 480.833,333.833 480.5,333.5C 481.488,330.55 482.321,327.55 483,324.5C 483.414,324.043 483.914,323.709 484.5,323.5C 485.182,324.243 485.849,324.909 486.5,325.5 Z"/></g>
<g><path style="opacity:1" fill="#e3e3fd" d="M 486.5,325.5 C 487.962,326.458 489.295,327.624 490.5,329C 489.333,330.167 488.167,331.333 487,332.5C 487.526,330.773 487.359,329.106 486.5,327.5C 486.5,326.833 486.5,326.167 486.5,325.5 Z"/></g>
</svg>
